<?xml version="1.0" encoding="utf-8"?>
<!-- Generator: Adobe Illustrator 21.0.0, SVG Export Plug-In . SVG Version: 6.00 Build 0)  -->
<svg version="1.1" id="Layer_1" xmlns="http://www.w3.org/2000/svg" xmlns:xlink="http://www.w3.org/1999/xlink" x="0px" y="0px"
	 viewBox="0 0 44 44" style="enable-background:new 0 0 44 44;" xml:space="preserve">
<style type="text/css">
	.st0{fill:none;stroke:#47A8A9;stroke-width:0.75;stroke-linecap:round;stroke-linejoin:round;stroke-miterlimit:10;}
	.st1{fill:#47A8A9;}
	.st2{fill:none;stroke:#000000;stroke-miterlimit:10;}
	.st3{fill:none;stroke:#000000;stroke-width:0.5;stroke-miterlimit:10;}
	.st4{fill:#FFFFFF;stroke:#000000;stroke-width:0.75;stroke-linecap:round;stroke-linejoin:round;stroke-miterlimit:10;}
	.st5{fill:none;stroke:#000000;stroke-width:0.75;stroke-linecap:round;stroke-linejoin:round;stroke-miterlimit:10;}
	.st6{fill:none;stroke:#000000;stroke-width:0.5;stroke-linecap:round;stroke-linejoin:round;stroke-miterlimit:10;}
	.st7{fill:#47A8A9;stroke:#000000;stroke-miterlimit:10;}
	.st8{fill:none;stroke:#000000;stroke-linecap:round;stroke-linejoin:round;stroke-miterlimit:10;}
	.st9{fill:#47A8A9;stroke:#000000;stroke-linecap:round;stroke-linejoin:round;stroke-miterlimit:10;}
</style>
<g>
	<g>
		<g>
			<path class="st2" d="M37.1,6.9L37.1,6.9c-1-1-2.7-1-3.7,0L11.9,28.3l-0.1,0c-1.5-0.3-3.2,0.1-4.3,1.3c-1.9,1.9-1.9,4.9,0,6.8"/>
			<path class="st2" d="M37.1,6.9L37.1,6.9c1,1,1,2.7,0,3.7L15.7,32.1l0,0.1c0.3,1.5-0.1,3.2-1.3,4.3c-1.9,1.9-4.9,1.9-6.8,0"/>
		</g>
		<path class="st1" d="M14.5,31.9L30.4,16c0.7-0.7,0.7-1.7,0-2.4s-1.7-0.7-2.4,0L12.1,29.5c-1.3-0.5-2.9-0.2-3.9,0.9
			c-1.5,1.5-1.5,3.9,0,5.4c1.5,1.5,3.9,1.5,5.4,0C14.7,34.7,15,33.2,14.5,31.9z"/>
	</g>
	<line class="st8" x1="15.7" y1="24.6" x2="17.5" y2="26.5"/>
	<line class="st8" x1="23.8" y1="16.5" x2="25.7" y2="18.3"/>
	<line class="st8" x1="19.7" y1="20.5" x2="21.6" y2="22.4"/>
</g>
</svg>
