<?xml version="1.0" encoding="utf-8"?>
<!-- Generator: Adobe Illustrator 19.2.1, SVG Export Plug-In . SVG Version: 6.00 Build 0)  -->
<svg version="1.1" id="Layer_1" xmlns="http://www.w3.org/2000/svg" xmlns:xlink="http://www.w3.org/1999/xlink" x="0px" y="0px"
	 viewBox="0 0 220 32" style="enable-background:new 0 0 220 32;" xml:space="preserve" class="svg-kd">
<style type="text/css">
	.svg-kd .st0{clip-path:url(#SVGID_2_);}
	.svg-kd .st1{clip-path:url(#SVGID_4_);fill:#231F20;}
</style>
<g>
	<defs>
		<path id="SVGID_1_" d="M194.7,26.7h7.1v-0.4h-3.3V7h0.1l12.6,20.1h0.6V5.8h3.3V5.4h-7.1v0.4h3.3v15.9h-0.1L201.1,5.4h-6.4v0.4h3.3
			v20.5h-3.3V26.7z M172.4,20.2c0.5,1.3,1.2,2.5,2.2,3.6c0.9,1,2,1.9,3.3,2.5c1.3,0.6,2.7,0.9,4.1,0.9c1.5,0,2.8-0.3,4.1-1
			c1.3-0.6,2.4-1.5,3.3-2.5c0.9-1,1.7-2.2,2.2-3.6c0.5-1.3,0.8-2.7,0.8-4.1c0-1.6-0.3-3.1-0.9-4.4c-0.6-1.4-1.4-2.5-2.3-3.5
			c-1-1-2.1-1.8-3.3-2.4c-1.2-0.6-2.5-0.9-3.8-0.9c-1.2,0-2.5,0.3-3.7,0.9C177,6.3,175.9,7,174.9,8c-1,1-1.8,2.2-2.4,3.5
			c-0.6,1.4-0.9,2.8-0.9,4.4C171.6,17.5,171.8,18.8,172.4,20.2z M175.3,12c0.2-1.3,0.5-2.4,1-3.4c0.5-1,1.2-1.8,2.1-2.4
			c0.9-0.6,2.1-0.9,3.5-0.9c1.5,0,2.6,0.3,3.5,0.9c0.9,0.6,1.6,1.4,2.1,2.4c0.5,1,0.9,2.2,1,3.4c0.2,1.3,0.3,2.6,0.3,4
			c0,1.8-0.1,3.4-0.4,4.7c-0.2,1.3-0.6,2.5-1.2,3.4s-1.3,1.6-2.2,2c-0.9,0.4-2,0.7-3.2,0.7c-1.3,0-2.4-0.2-3.3-0.7
			c-0.9-0.4-1.6-1.1-2.1-2c-0.6-0.9-1-2-1.2-3.4c-0.2-1.3-0.4-2.9-0.4-4.7C175,14.6,175.1,13.3,175.3,12z M151.1,26.7h9.6v-0.4h-3.3
			v-9.9c0.3,0.1,0.7,0.1,1.2,0.2c0.4,0,0.8,0.1,1.1,0.1c1.1,0,2.1-0.1,3.1-0.4c1-0.3,1.9-0.6,2.6-1.1c0.8-0.5,1.4-1.1,1.8-1.8
			c0.5-0.7,0.7-1.5,0.7-2.4c0-0.9-0.2-1.6-0.6-2.3c-0.4-0.7-0.9-1.3-1.7-1.8c-0.7-0.5-1.5-0.9-2.5-1.2c-1-0.3-2-0.4-3.1-0.4
			c-0.3,0-0.6,0-0.8,0c-0.3,0-0.5,0-0.8,0c-0.3,0-0.6,0-0.8,0c-0.3,0-0.6,0-0.8,0h-5.6v0.4h3.3v20.5h-3.3V26.7z M157.3,5.8
			c0.2,0,0.4,0,0.7-0.1c0.3,0,0.7,0,1,0c1,0,1.8,0.1,2.5,0.2c0.7,0.2,1.2,0.4,1.7,0.9c0.4,0.4,0.7,1,0.9,1.6
			c0.2,0.7,0.3,1.5,0.3,2.5c0,1.8-0.4,3.1-1.2,3.9c-0.8,0.9-2,1.3-3.4,1.3c-0.3,0-0.7,0-1.2-0.1c-0.4,0-0.9-0.1-1.3-0.2V5.8z
			 M126.6,5.8h3.3V20c0,2.4,0.6,4.2,1.9,5.4c1.3,1.2,3.1,1.8,5.5,1.8c1.6,0,2.8-0.2,3.8-0.7c1-0.4,1.7-1,2.2-1.7
			c0.6-0.7,0.9-1.5,1.1-2.1c0.2-0.7,0.3-1.5,0.3-2.3V5.8h3.3V5.4h-7.1v0.4h3.3v13.9c0,0.7,0,1.3-0.1,1.8c-0.1,0.5-0.1,0.9-0.3,1.3
			c-0.1,0.3-0.2,0.7-0.4,0.9c-0.1,0.3-0.3,0.5-0.5,0.8c-0.6,0.8-1.4,1.4-2.2,1.8c-0.9,0.3-1.8,0.5-3,0.5c-0.8,0-1.5-0.1-2.1-0.3
			c-0.6-0.2-1.1-0.6-1.6-1.1c-0.4-0.5-0.7-1.2-0.9-2c-0.2-0.8-0.3-1.8-0.3-3V5.8h3.3V5.4h-9.6V5.8z M103.1,26.7h5.1
			c0.3,0,0.6,0,0.9,0c0.3,0,0.7,0,1,0c0.3,0,0.7,0,1,0c0.3,0,0.7,0,1,0c0.7,0,1.3,0,1.8,0c0.5,0,1-0.1,1.5-0.1
			c0.4-0.1,0.9-0.1,1.3-0.3c0.4-0.1,0.9-0.3,1.4-0.5c0.9-0.4,1.7-0.8,2.4-1.4c0.7-0.6,1.4-1.3,2-2.1c0.6-0.8,1-1.7,1.3-2.8
			c0.3-1,0.5-2.2,0.5-3.6c0-1.1-0.1-2.2-0.4-3.3c-0.3-1-0.7-2-1.3-2.9c-0.6-0.9-1.3-1.7-2.2-2.3c-0.9-0.7-1.9-1.2-3.1-1.6
			c-0.4-0.1-0.8-0.3-1.2-0.3c-0.4-0.1-0.8-0.2-1.2-0.2c-0.4,0-0.8-0.1-1.3-0.1c-0.5,0-1,0-1.6,0c-0.3,0-0.6,0-0.8,0
			c-0.3,0-0.6,0-0.8,0c-0.3,0-0.6,0-0.8,0c-0.3,0-0.6,0-0.8,0h-5.5v0.4h3.3v20.5h-3.3V26.7z M109.4,5.8c0.4,0,0.8,0,1.2-0.1
			c0.4,0,0.9,0,1.4,0c1.7,0,3.1,0.3,4.2,0.7c1.1,0.5,2,1.2,2.7,2.1c0.7,0.9,1.2,2,1.5,3.3c0.3,1.3,0.4,2.7,0.4,4.3
			c0,1.3-0.1,2.6-0.4,3.7c-0.2,1.1-0.7,2.2-1.3,3.3c-0.4,0.7-0.9,1.3-1.4,1.7c-0.5,0.4-1.1,0.8-1.7,1c-0.6,0.2-1.2,0.4-1.9,0.4
			c-0.7,0.1-1.3,0.1-2,0.1c-0.5,0-1,0-1.5,0c-0.4,0-0.8,0-1.2-0.1V5.8z M72.8,26.7H91v-6.6h-0.3c-0.1,0.5-0.2,1-0.4,1.7
			c-0.2,0.7-0.6,1.4-1,2c-0.5,0.6-1,1.2-1.8,1.7c-0.7,0.5-1.6,0.7-2.7,0.7h-5.6V15.5h2.4c0.7,0,1.3,0.1,1.7,0.4
			c0.4,0.3,0.8,0.6,1.1,1c0.3,0.4,0.5,0.9,0.6,1.4c0.1,0.5,0.3,1.1,0.4,1.7h0.3v-9.3h-0.3c-0.2,0.9-0.4,1.6-0.7,2.2
			c-0.2,0.6-0.5,1-0.8,1.3c-0.3,0.3-0.7,0.6-1.2,0.7c-0.5,0.1-1,0.2-1.7,0.2h-1.9V5.8h5c0.8,0,1.5,0.1,2.1,0.3
			c0.6,0.2,1.1,0.5,1.5,0.9c0.4,0.4,0.8,0.9,1.1,1.5c0.3,0.6,0.6,1.3,0.8,2.1h0.3V5.4H72.8v0.4h3.3v20.5h-3.3V26.7z M55.7,26.7h9.6
			v-0.4H62V5.8h1.7c0.4,0,0.8,0,1.3,0.1c0.5,0.1,1,0.3,1.5,0.6C67,6.8,67.5,7.3,68,8c0.5,0.7,0.9,1.6,1.2,2.9h0.3V5.4H51.4v5.5h0.3
			c0.3-1.2,0.7-2.2,1.2-2.9c0.5-0.7,1-1.2,1.5-1.5c0.5-0.3,1-0.5,1.5-0.6c0.5-0.1,0.9-0.1,1.3-0.1H59v20.5h-3.3V26.7z M28.7,26.7
			h6.4v-0.4h-3.3l3.1-8.3h6.9l3.1,8.3h-3.3v0.4h9.2v-0.4h-2.7L40.1,4.8h-0.7l-8.1,21.5h-2.6V26.7z M41.6,17.5h-6.6l3.3-8.7
			L41.6,17.5z M5,26.7h9.4v-0.4h-3.1V15.7h0.2l8.9,10.6h-2.7v0.4h8.6v-0.4h-2L13.6,13.9l7.6-8.1h2.5V5.4h-6.2v0.4h3.1l-9,9.5h-0.3
			V5.8h3.1V5.4H5v0.4h3.3v20.5H5V26.7z"/>
	</defs>
	<clipPath id="SVGID_2_">
		<use xlink:href="#SVGID_1_"  style="overflow:visible;"/>
	</clipPath>
	<g class="st0">
		<defs>
			<rect id="SVGID_3_" x="-10" y="-6.2" width="240" height="44"/>
		</defs>
		<clipPath id="SVGID_4_">
			<use xlink:href="#SVGID_3_"  style="overflow:visible;"/>
		</clipPath>
		<rect y="-0.2" class="st1" width="220" height="32.3"/>
	</g>
</g>
</svg>
